<svg width="38" height="41" viewBox="0 0 38 41" fill="none" xmlns="http://www.w3.org/2000/svg">
<g filter="url(#filter0_d_9_1003)">
<path d="M28.5981 0C27.7111 0.215234 26.4212 0.615338 25.3271 1.18335C24.5233 1.60068 23.8176 2.10336 23.4112 2.59185C23.0049 3.08061 22.8826 3.45835 23.0253 3.94789L23.336 5.01397L22.2232 4.94785C21.9569 4.93193 21.7913 4.93767 21.5798 4.92506C21.3684 4.91244 21.1076 4.86364 20.8572 4.76237C20.52 4.62596 20.0637 4.35783 19.4518 3.98722C19.4149 4.45041 19.4031 4.91525 19.4163 5.37971C19.4495 6.50329 19.5928 7.81087 19.8374 8.96143C19.9534 9.50691 20.1002 10.0171 20.2572 10.4517C20.5187 10.0424 20.8046 9.65115 21.117 9.28871C22.6043 7.56458 24.653 5.6708 27.2215 5.48715C28.4817 5.39693 29.7845 5.95033 30.9396 6.5668C31.2889 5.90257 31.8358 5.35204 32.3915 4.85554C32.951 4.35548 33.5401 3.897 34.0473 3.46618C33.2127 2.88155 32.5785 2.58976 32.0359 2.52182C31.3425 2.43499 30.6355 2.64796 29.5165 3.28984L28.1876 4.05212L28.5982 0H28.5981ZM27.4801 7.04642C27.4314 7.0449 27.3826 7.04578 27.334 7.04903C25.5151 7.17901 23.6888 8.71052 22.31 10.3089C21.1006 11.711 20.269 13.8871 19.8067 15.6641C20.4067 15.7622 21.0483 15.8564 21.6909 15.8755C22.6476 15.9042 23.4785 15.7369 23.9044 15.3683L24.5195 14.8364L25.0317 15.4672C25.4647 16.0003 25.9755 16.6927 26.2829 17.5095C26.4384 17.9228 26.5345 18.3906 26.5186 18.8673C27.6097 18.6376 28.6095 18.2442 29.0423 17.7485L29.5016 17.2228L30.0795 17.616C30.9537 18.2109 31.8118 18.8846 32.4066 19.8115C32.4968 19.4851 32.5756 19.1446 32.6177 18.7893C32.749 17.6811 32.6019 16.5334 32.0378 15.7014C31.1438 14.722 30.1055 13.7826 29.8596 12.4798C29.7665 11.9861 29.9199 11.6081 30.1025 11.2366C30.2853 10.8651 30.5369 10.5 30.8321 10.141C31.1644 9.73701 31.551 9.34935 31.9634 9.00571C31.6126 8.77447 31.2303 8.52287 30.7509 8.25187C29.6352 7.62061 28.2526 7.06939 27.4802 7.04607L27.4801 7.04642ZM0.87164 8.41864C0.316555 8.41543 0 8.45918 0 8.55575C0.246394 9.67429 0.698815 10.8638 1.34835 11.9904C3.62051 11.667 5.98003 11.4941 8.39522 11.513C10.7325 12.2664 13.1728 12.9067 15.4576 13.7174C13.2316 13.3241 11.0246 13.1221 8.85987 13.0823C8.51566 13.076 8.17138 13.0739 7.82711 13.0759C5.33696 13.0898 2.91147 13.3171 0.580511 13.6997C0.998594 16.5254 2.33646 20.5778 4.98388 24.1809C7.86285 28.0989 12.2322 31.4907 18.6995 32.3985C23.7833 33.112 28.0898 31.9699 30.2739 29.6714C31.366 28.5222 31.9685 27.1008 31.9541 25.3417C31.9403 23.6924 31.3532 21.729 30.0033 19.5036C29.9043 19.4267 29.8023 19.35 29.6957 19.2727C28.5455 20.1747 26.9289 20.4691 25.5109 20.6057L23.904 20.7606L24.7725 19.4051C25.0323 18.9997 25.0136 18.5991 24.8103 18.0589C24.6805 17.7142 24.4594 17.3588 24.2205 17.0156C23.4228 17.4 22.505 17.4667 21.6434 17.4408C20.5096 17.4067 19.4114 17.1874 18.7024 17.07L17.8927 16.9362L18.0618 16.1364C18.3147 14.9406 18.7376 13.4688 19.389 12.056C15.3188 10.0342 4.089 8.43735 0.87164 8.41847V8.41864ZM27.4125 8.4263C28.1859 8.4263 28.8267 9.0687 28.8267 9.8368C28.8267 10.6049 28.1859 11.2473 27.4125 11.2473C26.6392 11.2473 25.9981 10.6049 25.9981 9.8368C25.9981 9.0687 26.6391 8.4263 27.4125 8.4263ZM33.8699 9.59817L33.7208 9.6796C33.2002 9.96451 32.5234 10.5565 32.049 11.1333C31.8118 11.4218 31.622 11.7086 31.5152 11.9257C31.4379 12.0829 31.425 12.2001 31.4164 12.2172C31.5296 12.7217 32.3326 13.6886 33.2483 14.6985L33.2821 14.7357L33.3106 14.7768C33.4701 15.0062 33.609 15.2491 33.726 15.5026C34.7282 15.5515 35.82 15.4371 37.1032 15.1783L33.4903 12.4869C33.4903 12.4869 36.7613 12.5519 37.9573 12.3446C38.3676 12.2734 35.7298 10.4108 33.87 9.59808L33.8699 9.59817ZM10.6575 17.3316L12.1879 17.6927C12.0457 18.29 11.6345 18.681 11.1958 18.9983C10.7572 19.3159 10.2457 19.5731 9.71045 19.8121C9.24126 20.0216 8.75607 20.2121 8.29544 20.3948C9.80237 21.0177 11.7675 21.4835 13.3582 21.0696L14.069 20.8845L14.3025 21.5783C14.4861 22.1238 14.3724 22.7024 14.1303 23.1528C13.8887 23.6031 13.5349 23.9738 13.1297 24.3136C12.7446 24.6366 12.306 24.9291 11.8509 25.1931C11.983 25.2279 12.0912 25.261 12.2365 25.2962C13.648 25.6375 15.6624 25.9913 17.672 26.1382C19.6814 26.285 21.6987 26.2099 23.0494 25.7856C23.7246 25.5733 24.2155 25.281 24.5002 24.9545C24.785 24.628 24.9196 24.2746 24.8637 23.6808L26.4296 23.5348C26.5187 24.4821 26.2374 25.3508 25.6878 25.9812C25.1382 26.6115 24.376 27.0109 23.5227 27.279C21.8157 27.8152 19.6723 27.8545 17.5568 27.6998C15.4413 27.5451 13.3667 27.1809 11.8653 26.8179C11.1147 26.6363 10.5157 26.4602 10.0842 26.2868C9.86843 26.2 9.71054 26.1491 9.48861 25.9557C9.37765 25.859 9.15327 25.6778 9.17494 25.2525C9.1856 25.0398 9.29849 24.8308 9.4105 24.7158C9.52234 24.601 9.62352 24.551 9.70477 24.5162C10.5575 24.1511 11.5014 23.6314 12.1165 23.1157C12.2388 23.0124 12.3541 22.9011 12.4616 22.7827C9.95169 22.9589 7.47141 21.8985 6.01577 21.0035L4.82347 20.2706L6.07309 19.6392C6.93223 19.205 8.09535 18.8168 9.06651 18.3829C9.55231 18.1661 9.98463 17.9386 10.2711 17.7313C10.5575 17.5242 10.653 17.3502 10.6573 17.3314L10.6575 17.3316ZM8.19863 29.7057C7.33013 30.5912 6.04399 31.4548 4.68795 32.146C4.134 31.4556 3.53864 30.801 2.90159 30.211L1.83057 31.3578C2.30981 31.8015 2.76983 32.2955 3.20775 32.8206C2.70754 33.0216 2.21484 33.1925 1.7473 33.3246L2.17665 34.831C2.75813 34.6665 3.36529 34.4612 3.97699 34.2189C3.97664 35.6883 3.82059 37.3282 3.40626 38.4658L4.88463 39C5.20311 38.1257 5.38746 37.1336 5.48104 36.1378C5.89825 36.872 6.2688 37.6059 6.58247 38.307L8.01916 37.6696C7.41104 36.3102 6.61769 34.8457 5.66217 33.4572C7.12874 32.7061 8.50828 31.7491 9.50399 30.6308C9.05738 30.3388 8.62195 30.0303 8.19863 29.7058V29.7057ZM34.5361 32.7617C33.2117 32.7782 31.7259 33.4452 30.2365 34.3706C29.614 34.7574 29.017 35.1834 28.4491 35.646C27.8629 35.1973 27.2495 34.7159 26.6265 34.2341C26.3978 34.0572 26.1683 33.8814 25.938 33.7067C25.2493 33.8728 24.528 33.9959 23.7795 34.0749C24.3957 34.5064 25.0304 34.9825 25.6619 35.4709C26.2022 35.8887 26.7394 36.3124 27.267 36.7197C26.8338 37.1596 26.4413 37.6184 26.1099 38.0886L27.3973 38.9882C27.7037 38.5533 28.0948 38.1075 28.5398 37.673C28.9845 37.9932 29.4184 38.2892 29.8346 38.54L30.6487 37.2002C30.5111 37.117 30.3752 37.0311 30.2409 36.9427C31.9366 36.74 33.6532 36.9122 34.8414 37.1755L35.183 35.6469C34.2586 35.4419 33.0904 35.2795 31.8265 35.275L31.8099 35.2752C32.9995 34.6472 34.1346 34.2988 34.7116 34.3306L34.7989 32.7673C34.7115 32.7625 34.6238 32.7606 34.5362 32.7618L34.5361 32.7617Z" fill="white"/>
</g>
<defs>
<filter id="filter0_d_9_1003" x="0" y="0" width="38" height="41" filterUnits="userSpaceOnUse" color-interpolation-filters="sRGB">
<feFlood flood-opacity="0" result="BackgroundImageFix"/>
<feColorMatrix in="SourceAlpha" type="matrix" values="0 0 0 0 0 0 0 0 0 0 0 0 0 0 0 0 0 0 127 0" result="hardAlpha"/>
<feOffset dy="2"/>
<feComposite in2="hardAlpha" operator="out"/>
<feColorMatrix type="matrix" values="0 0 0 0 0 0 0 0 0 0 0 0 0 0 0 0 0 0 0.15 0"/>
<feBlend mode="normal" in2="BackgroundImageFix" result="effect1_dropShadow_9_1003"/>
<feBlend mode="normal" in="SourceGraphic" in2="effect1_dropShadow_9_1003" result="shape"/>
</filter>
</defs>
</svg>
