<svg width="33" height="33" viewBox="0 0 33 33" fill="none" xmlns="http://www.w3.org/2000/svg">
<path d="M13.2 6.6H19.8C19.8 5.72479 19.4523 4.88542 18.8335 4.26655C18.2146 3.64768 17.3752 3.3 16.5 3.3C15.6248 3.3 14.7854 3.64768 14.1665 4.26655C13.5477 4.88542 13.2 5.72479 13.2 6.6ZM9.9 6.6C9.9 4.84957 10.5954 3.17084 11.8331 1.9331C13.0708 0.695355 14.7496 0 16.5 0C18.2504 0 19.9292 0.695355 21.1669 1.9331C22.4046 3.17084 23.1 4.84957 23.1 6.6H31.35C31.7876 6.6 32.2073 6.77384 32.5167 7.08327C32.8262 7.39271 33 7.81239 33 8.25C33 8.68761 32.8262 9.10729 32.5167 9.41673C32.2073 9.72616 31.7876 9.9 31.35 9.9H29.8947L28.4328 26.961C28.2923 28.6085 27.5385 30.1432 26.3206 31.2615C25.1026 32.3798 23.5093 33.0002 21.8559 33H11.1441C9.49065 33.0002 7.89735 32.3798 6.67945 31.2615C5.46154 30.1432 4.70774 28.6085 4.5672 26.961L3.1053 9.9H1.65C1.21239 9.9 0.792709 9.72616 0.483274 9.41673C0.173839 9.10729 0 8.68761 0 8.25C0 7.81239 0.173839 7.39271 0.483274 7.08327C0.792709 6.77384 1.21239 6.6 1.65 6.6H9.9ZM21.45 16.5C21.45 16.0624 21.2762 15.6427 20.9667 15.3333C20.6573 15.0238 20.2376 14.85 19.8 14.85C19.3624 14.85 18.9427 15.0238 18.6333 15.3333C18.3238 15.6427 18.15 16.0624 18.15 16.5V23.1C18.15 23.5376 18.3238 23.9573 18.6333 24.2667C18.9427 24.5762 19.3624 24.75 19.8 24.75C20.2376 24.75 20.6573 24.5762 20.9667 24.2667C21.2762 23.9573 21.45 23.5376 21.45 23.1V16.5ZM13.2 14.85C12.7624 14.85 12.3427 15.0238 12.0333 15.3333C11.7238 15.6427 11.55 16.0624 11.55 16.5V23.1C11.55 23.5376 11.7238 23.9573 12.0333 24.2667C12.3427 24.5762 12.7624 24.75 13.2 24.75C13.6376 24.75 14.0573 24.5762 14.3667 24.2667C14.6762 23.9573 14.85 23.5376 14.85 23.1V16.5C14.85 16.0624 14.6762 15.6427 14.3667 15.3333C14.0573 15.0238 13.6376 14.85 13.2 14.85Z" fill="#959595"/>
</svg>
