<svg width="36" height="32" viewBox="0 0 36 32" fill="none" xmlns="http://www.w3.org/2000/svg">
<path d="M30.6 0H5.4C2.8548 0 1.5822 -1.05965e-07 0.792 0.732452C0.00180008 1.4649 0 2.64536 0 5.0045V6.23118C0 8.07475 0 8.99743 0.468 9.76188C0.936 10.5263 1.7874 11.0028 3.4956 11.9521L8.739 14.8677C9.8838 15.5042 10.458 15.8224 10.8684 16.1744C11.7216 16.9051 12.2472 17.7655 12.4848 18.8233C12.6 19.3282 12.6 19.922 12.6 21.1078V25.8545C12.6 27.4705 12.6 28.2794 13.0536 28.9088C13.5072 29.5399 14.3136 29.851 15.9228 30.4732C19.305 31.7781 20.9952 32.4306 22.1976 31.6875C23.4 30.9443 23.4 29.2483 23.4 25.8527V21.106C23.4 19.922 23.4 19.3282 23.5152 18.8215C23.7413 17.7854 24.3107 16.8532 25.1334 16.1726C25.542 15.8224 26.1162 15.5042 27.261 14.8659L32.5044 11.9504C34.2108 11.0028 35.0658 10.5281 35.532 9.76366C36 8.99921 36 8.07476 36 6.2294V5.00272C36 2.64536 36 1.4649 35.208 0.732452C34.4196 -1.05965e-07 33.147 0 30.6 0Z" fill="white"/>
</svg>
