<svg width="354" height="7" viewBox="0 0 354 7" fill="none" xmlns="http://www.w3.org/2000/svg">
<g filter="url(#filter0_d_9_990)">
<path fill-rule="evenodd" clip-rule="evenodd" d="M2.5 0C1.11929 0 0 1.11929 0 2.5C0 3.88071 1.11929 5 2.5 5H21.5C22.8807 5 24 3.88071 24 2.5C24 1.11929 22.8807 0 21.5 0H2.5ZM32.5 0C31.1193 0 30 1.11929 30 2.5C30 3.88071 31.1193 5 32.5 5H51.5C52.8807 5 54 3.88071 54 2.5C54 1.11929 52.8807 0 51.5 0H32.5ZM60 2.5C60 1.11929 61.1193 0 62.5 0H81.5C82.8807 0 84 1.11929 84 2.5C84 3.88071 82.8807 5 81.5 5H62.5C61.1193 5 60 3.88071 60 2.5ZM92.5 0C91.1193 0 90 1.11929 90 2.5C90 3.88071 91.1193 5 92.5 5H111.5C112.881 5 114 3.88071 114 2.5C114 1.11929 112.881 0 111.5 0H92.5ZM120 2.5C120 1.11929 121.119 0 122.5 0H141.5C142.881 0 144 1.11929 144 2.5C144 3.88071 142.881 5 141.5 5H122.5C121.119 5 120 3.88071 120 2.5ZM152.5 0C151.119 0 150 1.11929 150 2.5C150 3.88071 151.119 5 152.5 5H171.5C172.881 5 174 3.88071 174 2.5C174 1.11929 172.881 0 171.5 0H152.5ZM180 2.5C180 1.11929 181.119 0 182.5 0H201.5C202.881 0 204 1.11929 204 2.5C204 3.88071 202.881 5 201.5 5H182.5C181.119 5 180 3.88071 180 2.5ZM212.5 0C211.119 0 210 1.11929 210 2.5C210 3.88071 211.119 5 212.5 5H231.5C232.881 5 234 3.88071 234 2.5C234 1.11929 232.881 0 231.5 0H212.5ZM240 2.5C240 1.11929 241.119 0 242.5 0H261.5C262.881 0 264 1.11929 264 2.5C264 3.88071 262.881 5 261.5 5H242.5C241.119 5 240 3.88071 240 2.5ZM272.5 0C271.119 0 270 1.11929 270 2.5C270 3.88071 271.119 5 272.5 5H291.5C292.881 5 294 3.88071 294 2.5C294 1.11929 292.881 0 291.5 0H272.5ZM300 2.5C300 1.11929 301.119 0 302.5 0H321.5C322.881 0 324 1.11929 324 2.5C324 3.88071 322.881 5 321.5 5H302.5C301.119 5 300 3.88071 300 2.5ZM332.5 0C331.119 0 330 1.11929 330 2.5C330 3.88071 331.119 5 332.5 5H351.5C352.881 5 354 3.88071 354 2.5C354 1.11929 352.881 0 351.5 0H332.5Z" fill="white"/>
</g>
<defs>
<filter id="filter0_d_9_990" x="0" y="0" width="354" height="7" filterUnits="userSpaceOnUse" color-interpolation-filters="sRGB">
<feFlood flood-opacity="0" result="BackgroundImageFix"/>
<feColorMatrix in="SourceAlpha" type="matrix" values="0 0 0 0 0 0 0 0 0 0 0 0 0 0 0 0 0 0 127 0" result="hardAlpha"/>
<feOffset dy="2"/>
<feComposite in2="hardAlpha" operator="out"/>
<feColorMatrix type="matrix" values="0 0 0 0 0 0 0 0 0 0 0 0 0 0 0 0 0 0 0.15 0"/>
<feBlend mode="normal" in2="BackgroundImageFix" result="effect1_dropShadow_9_990"/>
<feBlend mode="normal" in="SourceGraphic" in2="effect1_dropShadow_9_990" result="shape"/>
</filter>
</defs>
</svg>
