<svg width="52" height="52" viewBox="0 0 52 52" fill="none" xmlns="http://www.w3.org/2000/svg">
<path d="M41 15.0902C41.0003 16.0858 40.6995 17.0596 40.1349 17.8911C39.5703 18.7226 38.7666 19.3754 37.8233 19.7685C36.8801 20.1617 35.8386 20.278 34.8279 20.1031C33.8171 19.9283 32.8814 19.4698 32.1366 18.7846L21.3578 24.8178C21.5488 25.5942 21.5488 26.4034 21.3578 27.1798L32.1366 33.2144C33.0519 32.3733 34.2489 31.8797 35.5086 31.824C36.7684 31.7682 38.0067 32.154 38.9972 32.9108C39.9877 33.6676 40.6642 34.7449 40.903 35.9456C41.1417 37.1463 40.9268 38.3902 40.2975 39.4498C39.6681 40.5095 38.6665 41.314 37.4757 41.7165C36.2848 42.1189 34.9844 42.0922 33.8122 41.6413C32.64 41.1904 31.6744 40.3455 31.0918 39.261C30.5093 38.1765 30.3488 36.9249 30.6397 35.7351L19.8563 29.699C19.1109 30.3822 18.1753 30.8388 17.1653 31.0122C16.1552 31.1856 15.1149 31.0683 14.1729 30.6748C13.2308 30.2813 12.4282 29.6288 11.8644 28.7979C11.3005 27.967 11 26.9942 11 25.9995C11 25.0049 11.3005 24.032 11.8644 23.2011C12.4282 22.3703 13.2308 21.7178 14.1729 21.3242C15.1149 20.9307 16.1552 20.8134 17.1653 20.9868C18.1753 21.1603 19.1109 21.6168 19.8563 22.3001L30.6412 16.2625C30.4706 15.5636 30.4546 14.8375 30.5941 14.1321C30.7336 13.4266 31.0254 12.7578 31.4505 12.1695C31.8755 11.5813 32.4242 11.0869 33.0603 10.7189C33.6965 10.3509 34.4057 10.1176 35.1415 10.0343C35.8772 9.95106 36.6229 10.0197 37.3293 10.2358C38.0357 10.4518 38.687 10.8104 39.2404 11.288C39.7937 11.7655 40.2366 12.3512 40.5398 13.0065C40.8431 13.6618 40.9999 14.372 41 15.0902Z" fill="white"/>
</svg>
