<svg width="32" height="32" viewBox="0 0 32 32" fill="none" xmlns="http://www.w3.org/2000/svg">
<path fill-rule="evenodd" clip-rule="evenodd" d="M1.59999 0C1.17565 0 0.768685 0.168487 0.468627 0.468395C0.16857 0.768303 0 1.17507 0 1.5992C0 2.02333 0.16857 2.4301 0.468627 2.73001C0.768685 3.02991 1.17565 3.1984 1.59999 3.1984H3.31839L3.57439 6.51994L4.55998 19.3407C4.65739 20.6048 5.25143 21.7789 6.2123 22.6066C7.17317 23.4342 8.42275 23.8481 9.68797 23.7577L26.2559 22.5743C27.3754 22.4944 28.4315 22.025 29.2406 21.2475C30.0498 20.47 30.5607 19.4338 30.6847 18.3188L31.9903 6.57271C32.015 6.34922 31.9923 6.12302 31.9237 5.90888C31.8551 5.69474 31.742 5.49747 31.5919 5.32996C31.4419 5.16245 31.2581 5.02845 31.0527 4.93672C30.8473 4.84499 30.6249 4.79759 30.3999 4.7976H6.65118L6.39518 1.47606C6.36415 1.07445 6.18262 0.699332 5.88689 0.425683C5.59115 0.152035 5.20299 1.25245e-05 4.79998 0H1.59999ZM7.99997 29.5852C7.99997 28.949 8.25283 28.3389 8.70291 27.889C9.153 27.4391 9.76345 27.1864 10.4 27.1864H10.416C11.0525 27.1864 11.6629 27.4391 12.113 27.889C12.5631 28.3389 12.816 28.949 12.816 29.5852V29.6012C12.816 30.2374 12.5631 30.8475 12.113 31.2974C11.6629 31.7473 11.0525 32 10.416 32H10.4C9.76345 32 9.153 31.7473 8.70291 31.2974C8.25283 30.8475 7.99997 30.2374 7.99997 29.6012V29.5852ZM24.7999 27.1864C24.1634 27.1864 23.553 27.4391 23.1029 27.889C22.6528 28.3389 22.3999 28.949 22.3999 29.5852V29.6012C22.3999 30.2374 22.6528 30.8475 23.1029 31.2974C23.553 31.7473 24.1634 32 24.7999 32H24.8159C25.4524 32 26.0629 31.7473 26.513 31.2974C26.9631 30.8475 27.2159 30.2374 27.2159 29.6012V29.5852C27.2159 28.949 26.9631 28.3389 26.513 27.889C26.0629 27.4391 25.4524 27.1864 24.8159 27.1864H24.7999Z" fill="white"/>
</svg>
